<svg xmlns="http://www.w3.org/2000/svg" aria-hidden="true" style="position:absolute;width:0;height:0;overflow:hidden">
  <defs>
    <symbol id="icon-arrow-back" viewBox="0 0 32 32">
      <path fill="none" stroke="#fffef6" stroke-linecap="round" stroke-linejoin="round" stroke-width="1.333" d="M21.333 26 10.666 16 21.333 6" style="stroke:var(--color1, #fffef6)"/>
    </symbol>
    <symbol id="icon-arrow-left" viewBox="0 0 32 32">
      <path fill="#291b5c" d="M16 0c7.953 0 14.4 6.447 14.4 14.4S23.953 28.8 16 28.8 1.6 22.353 1.6 14.4 8.047 0 16 0z" style="fill:var(--color2, #291b5c)"/>
      <path fill="none" stroke="#ffe16d" stroke-width=".8" d="M16 .4c7.732 0 14 6.268 14 14s-6.268 14-14 14-14-6.268-14-14S8.268.4 16 .4z" style="stroke:var(--color3, #ffe16d)"/>
      <path fill="none" stroke="#fffef6" stroke-linecap="round" stroke-linejoin="round" stroke-width=".8" d="m18.4 19.2-4.8-4.8 4.8-4.8" style="stroke:var(--color1, #fffef6)"/>
    </symbol>
    <symbol id="icon-arrow-right" viewBox="0 0 32 32">
      <path fill="#291b5c" d="M16 0c7.953 0 14.4 6.447 14.4 14.4S23.953 28.8 16 28.8 1.6 22.353 1.6 14.4 8.047 0 16 0z" style="fill:var(--color2, #291b5c)"/>
      <path fill="none" stroke="#ffe16d" stroke-width=".8" d="M16 .4c7.732 0 14 6.268 14 14s-6.268 14-14 14-14-6.268-14-14S8.268.4 16 .4z" style="stroke:var(--color3, #ffe16d)"/>
      <path fill="none" stroke="#fffef6" stroke-linecap="round" stroke-linejoin="round" stroke-width=".8" d="m13.6 19.2 4.8-4.8-4.8-4.8" style="stroke:var(--color1, #fffef6)"/>
    </symbol>
    <symbol id="icon-close" viewBox="0 0 32 32">
      <path fill="none" stroke="#ffe16d" stroke-width="1.333" d="M5.333.667h21.333a4.667 4.667 0 0 1 4.667 4.667v21.333a4.667 4.667 0 0 1-4.667 4.667H5.333a4.667 4.667 0 0 1-4.667-4.667V5.334A4.667 4.667 0 0 1 5.333.667z" style="stroke:var(--color3, #ffe16d)"/>
      <path fill="none" stroke="#fffef6" stroke-linecap="round" stroke-linejoin="round" stroke-width="1.333" d="m7 7 9 9m0 0-9 9m9-9 9 9m-9-9 9-9" style="stroke:var(--color1, #fffef6)"/>
    </symbol>
    <symbol id="icon-hand" viewBox="0 0 32 32">
      <path fill="#ffe16d" d="M12.571 29.714c-.631 0-1.17-.223-1.616-.67s-.67-.985-.67-1.616v-16l-2.696 3.607c-.488.643-1.125.964-1.911.964-.619 0-1.149-.226-1.589-.679s-.661-.988-.661-1.607c0-.512.155-.97.464-1.375l6.857-9.143c.452-.607 1.06-.911 1.821-.911h12.822c.262 0 .497.08.705.241s.342.366.402.616l1.643 6.571a14.22 14.22 0 0 1 .429 3.464v3.875c0 .488-.167.911-.5 1.268s-.738.536-1.214.536-.881-.167-1.214-.5a1.654 1.654 0 0 1-.5-1.214h-.571v1.089c0 .571-.191 1.057-.571 1.455s-.857.598-1.429.598c-.548 0-1.018-.196-1.411-.589s-.589-.863-.589-1.411V17.14h-.571v1.607c0 .655-.22 1.217-.661 1.688s-.982.705-1.625.705c-.631 0-1.17-.223-1.616-.67s-.67-.985-.67-1.616V17.14h-.571v10.178c0 .655-.22 1.217-.661 1.688s-.982.705-1.625.705zm0 2.286c1.274 0 2.354-.461 3.241-1.384s1.33-2.021 1.33-3.295v-3.928c.262.024.452.036.571.036 1.178 0 2.208-.411 3.089-1.232.56.25 1.149.375 1.768.375 1.345 0 2.44-.518 3.286-1.554.321.083.655.125 1 .125 1.119 0 2.066-.402 2.839-1.205s1.161-1.765 1.161-2.884v-3.875c0-1.381-.167-2.72-.5-4.018L28.713 2.59c-.191-.762-.595-1.384-1.214-1.866S26.177.001 25.392.001H12.57c-.714 0-1.396.164-2.045.491s-1.188.771-1.616 1.33l-6.857 9.143a4.468 4.468 0 0 0-.911 2.75c0 1.25.443 2.324 1.33 3.223s1.955 1.348 3.205 1.348a4.46 4.46 0 0 0 2.321-.625v9.768c0 1.262.446 2.339 1.339 3.232S11.306 32 12.568 32zm2.286-25.143v6.857h-.571V6.857h.571zm4.572 0v6.857h-.571V6.857h.571zm4.571 0v6.857h-.571V6.857H24z" style="fill:var(--color3, #ffe16d)"/>
    </symbol>
    <symbol id="icon-menu" viewBox="0 0 32 32">
      <path fill="none" stroke="#ffe16d" stroke-width="1.333" d="M5.333.667h21.333a4.667 4.667 0 0 1 4.667 4.667v21.333a4.667 4.667 0 0 1-4.667 4.667H5.333a4.667 4.667 0 0 1-4.667-4.667V5.334A4.667 4.667 0 0 1 5.333.667z" style="stroke:var(--color3, #ffe16d)"/>
      <path fill="none" stroke="#fffef6" stroke-linecap="round" stroke-width="1.333" d="M7.5 9.5h17m-17 12h17m-17-6h17" style="stroke:var(--color1, #fffef6)"/>
    </symbol>
    <symbol id="icon-google-play" viewBox="0 0 248 72" fill="none">
  <g filter="url(#filter0_d_4002_142)">
    <rect x="4" y="2" width="240" height="64" rx="8" fill="#FFE16D" />
    <rect x="4.5" y="2.5" width="239" height="63" rx="7.5" stroke="black" stroke-opacity="0.6" />
    <path fill-rule="evenodd" clip-rule="evenodd" d="M36.7453 14.929C36.2758 15.4108 36 16.1569 36 17.1252V51.6913C36 52.6595 36.2758 53.4056 36.7453 53.8874L36.8646 54L56.8333 34.6366V34.1798L36.8646 14.8164L36.7453 14.929Z" fill="#00D7FE" />
    <mask id="mask0_4002_142" style="mask-type:alpha" maskUnits="userSpaceOnUse" x="56" y="27" width="17" height="14">
      <path d="M63.2644 40.1227L56.8335 33.8145V33.3683L63.2675 27.0615L71.0345 31.3862C73.2109 32.5996 73.2109 34.5831 71.0345 35.795L63.4125 40.0402L63.2644 40.1227Z" fill="white" />
    </mask>
    <g mask="url(#mask0_4002_142)">
      <path fill-rule="evenodd" clip-rule="evenodd" d="M63.2644 40.1227L56.8335 33.8145V33.3683L63.2675 27.0615L71.0345 31.3862C73.2109 32.5996 73.2109 34.5831 71.0345 35.795L63.4125 40.0402L63.2644 40.1227Z" fill="url(#paint0_linear_4002_142)" />
    </g>
    <mask id="mask1_4002_142" style="mask-type:alpha" maskUnits="userSpaceOnUse" x="36" y="33" width="28" height="21">
      <path d="M63.5001 40.294L56.7507 33.5918L36.8335 53.3698C37.5708 54.1432 38.7864 54.2385 40.1554 53.4666L63.5001 40.294Z" fill="white" />
    </mask>
    <g mask="url(#mask1_4002_142)">
      <path fill-rule="evenodd" clip-rule="evenodd" d="M63.5001 40.294L56.7507 33.5918L36.8335 53.3698C37.5708 54.1432 38.7864 54.2385 40.1554 53.4666L63.5001 40.294Z" fill="url(#paint1_linear_4002_142)" />
    </g>
    <mask id="mask2_4002_142" style="mask-type:alpha" maskUnits="userSpaceOnUse" x="36" y="14" width="28" height="21">
      <path d="M63.5001 27.7059L40.1554 14.5333C38.7864 13.7614 37.5708 13.8567 36.8335 14.6302L56.7507 34.4081L63.5001 27.7059Z" fill="white" />
    </mask>
    <g mask="url(#mask2_4002_142)">
      <path fill-rule="evenodd" clip-rule="evenodd" d="M63.5001 27.7059L40.1554 14.5333C38.7864 13.7614 37.5708 13.8567 36.8335 14.6302L56.7507 34.4081L63.5001 27.7059Z" fill="url(#paint2_linear_4002_142)" />
    </g>
    <path fill-rule="evenodd" clip-rule="evenodd" d="M185.05 49.2554H187.713V31.637H185.05V49.2554ZM209.038 37.9834L205.985 45.6221H205.894L202.725 37.9834H199.857L204.608 48.6593L201.899 54.5983H204.678L212 37.9834H209.038ZM193.935 47.2542C193.061 47.2542 191.845 46.8243 191.845 45.7588C191.845 44.3988 193.361 43.8773 194.668 43.8773C195.84 43.8773 196.39 44.1268 197.102 44.4664C196.895 46.0985 195.472 47.2542 193.935 47.2542ZM194.256 37.5986C192.328 37.5986 190.331 38.4372 189.504 40.2961L191.868 41.27C192.373 40.2961 193.314 39.9776 194.302 39.9776C195.679 39.9776 197.079 40.7936 197.102 42.2453V42.4257C196.62 42.1537 195.588 41.7464 194.324 41.7464C191.777 41.7464 189.182 43.129 189.182 45.7123C189.182 48.0702 191.271 49.5895 193.612 49.5895C195.403 49.5895 196.39 48.796 197.011 47.8658H197.102V49.2258H199.672V42.4722C199.672 39.3434 197.309 37.5986 194.256 37.5986ZM177.796 40.1284H174.008V34.0893H177.796C179.787 34.0893 180.918 35.7171 180.918 37.1082C180.918 38.4738 179.787 40.1284 177.796 40.1284ZM177.728 31.637H171.346V49.2554H174.008V42.5807H177.728C180.68 42.5807 183.581 40.4695 183.581 37.1082C183.581 33.7468 180.68 31.637 177.728 31.637ZM142.929 47.257C141.089 47.257 139.549 45.7363 139.549 43.6476C139.549 41.5364 141.089 39.9917 142.929 39.9917C144.746 39.9917 146.17 41.5364 146.17 43.6476C146.17 45.7363 144.746 47.257 142.929 47.257ZM145.986 38.9699H145.895C145.297 38.2667 144.148 37.631 142.699 37.631C139.663 37.631 136.882 40.2637 136.882 43.6476C136.882 47.0075 139.663 49.6191 142.699 49.6191C144.148 49.6191 145.297 48.9834 145.895 48.2562H145.986V49.1187C145.986 51.4132 144.746 52.6393 142.745 52.6393C141.112 52.6393 140.1 51.4808 139.686 50.5041L137.364 51.4583C138.031 53.048 139.802 55 142.745 55C145.872 55 148.517 53.1833 148.517 48.7565V37.9932H145.986V38.9699ZM150.357 49.2554H153.024V31.6356H150.357V49.2554ZM156.955 43.4432C156.887 41.1277 158.772 39.9466 160.128 39.9466C161.187 39.9466 162.083 40.4681 162.382 41.2179L156.955 43.4432ZM165.233 41.4448C164.728 40.1059 163.187 37.631 160.037 37.631C156.909 37.631 154.312 40.0594 154.312 43.6251C154.312 46.985 156.887 49.6191 160.335 49.6191C163.118 49.6191 164.728 47.9391 165.395 46.9624L163.325 45.5996C162.636 46.5988 161.692 47.257 160.335 47.257C158.979 47.257 158.013 46.6439 157.392 45.4417L165.509 42.1269L165.233 41.4448ZM100.566 39.4703V42.0127H106.727C106.543 43.4432 106.061 44.4876 105.326 45.2148C104.428 46.0999 103.025 47.0752 100.566 47.0752C96.772 47.0752 93.8046 44.0563 93.8046 40.3102C93.8046 36.5627 96.772 33.5439 100.566 33.5439C102.612 33.5439 104.107 34.3388 105.21 35.3606L107.027 33.5664C105.486 32.1134 103.44 31 100.566 31C95.3689 31 91 35.1788 91 40.3102C91 45.4417 95.3689 49.6191 100.566 49.6191C103.37 49.6191 105.486 48.7114 107.141 47.0075C108.843 45.3276 109.372 42.9669 109.372 41.0586C109.372 40.4681 109.326 39.9241 109.234 39.4703H100.566ZM116.379 47.257C114.539 47.257 112.952 45.7588 112.952 43.6251C112.952 41.4673 114.539 39.9917 116.379 39.9917C118.217 39.9917 119.804 41.4673 119.804 43.6251C119.804 45.7588 118.217 47.257 116.379 47.257ZM116.379 37.631C113.02 37.631 110.284 40.151 110.284 43.6251C110.284 47.0752 113.02 49.6191 116.379 49.6191C119.736 49.6191 122.472 47.0752 122.472 43.6251C122.472 40.151 119.736 37.631 116.379 37.631ZM129.671 47.257C127.831 47.257 126.244 45.7588 126.244 43.6251C126.244 41.4673 127.831 39.9917 129.671 39.9917C131.511 39.9917 133.097 41.4673 133.097 43.6251C133.097 45.7588 131.511 47.257 129.671 47.257ZM129.671 37.631C126.314 37.631 123.578 40.151 123.578 43.6251C123.578 47.0752 126.314 49.6191 129.671 49.6191C133.028 49.6191 135.764 47.0752 135.764 43.6251C135.764 40.151 133.028 37.631 129.671 37.631Z" fill="#170F36" />
    <path d="M147 22H145.712L140.821 15.8352V22H139.533V14H140.821L145.726 20.1923V14H147V22Z" fill="#170F36" />
    <path d="M138.787 18.2513C138.787 19.0143 138.634 19.6809 138.328 20.2513C138.022 20.8182 137.588 21.2513 137.027 21.5508C136.466 21.8503 135.811 22 135.063 22C134.332 22 133.683 21.8503 133.118 21.5508C132.553 21.2478 132.113 20.8182 131.798 20.262C131.488 19.7023 131.329 19.0553 131.32 18.3209V17.7594C131.32 17.0107 131.475 16.3494 131.785 15.7754C132.096 15.2014 132.534 14.7629 133.099 14.4599C133.669 14.1533 134.319 14 135.05 14C135.794 14 136.449 14.1515 137.014 14.4545C137.584 14.754 138.022 15.1907 138.328 15.7647C138.634 16.3351 138.787 17 138.787 17.7594V18.2513ZM137.569 17.7487C137.569 16.8253 137.348 16.1176 136.906 15.6257C136.464 15.1301 135.845 14.8824 135.05 14.8824C134.276 14.8824 133.666 15.1301 133.22 15.6257C132.778 16.1176 132.551 16.8021 132.538 17.6791V18.2513C132.538 19.1462 132.761 19.8503 133.207 20.3636C133.658 20.8734 134.276 21.1283 135.063 21.1283C135.854 21.1283 136.466 20.8877 136.899 20.4064C137.333 19.9216 137.556 19.2282 137.569 18.3262V17.7487Z" fill="#170F36" />
    <path d="M128.333 14.8681H125.23V22H123.963V14.8681H120.867V14H128.333V14.8681Z" fill="#170F36" />
    <path d="M120.12 22H118.627V14H120.12V22Z" fill="#170F36" />
    <path d="M114.893 14.8681H111.79V22H110.523V14.8681H107.427V14H114.893V14.8681Z" fill="#170F36" />
    <path d="M105.275 18.3022H101.2V21.1374H105.933V22H99.96V14H105.869V14.8681H101.2V17.4396H105.275V18.3022Z" fill="#170F36" />
    <path d="M98.4667 20.8717C98.1384 21.2496 97.6792 21.533 97.0891 21.7219C96.5035 21.9073 95.8203 22 95.0395 22C94.2498 22 93.5488 21.852 92.9365 21.5561C92.3243 21.2567 91.8496 20.8324 91.5124 20.2834C91.1797 19.7344 91.0089 19.098 91 18.3743V17.6952C91 16.5223 91.3394 15.6132 92.0182 14.9679C92.7014 14.3226 93.6597 14 94.893 14C95.9046 14 96.7187 14.2086 97.3354 14.6257C97.952 15.0392 98.3291 15.6275 98.4667 16.3904H97.1889C96.9494 15.3601 96.1863 14.8449 94.8997 14.8449C94.0435 14.8449 93.3935 15.0873 92.9499 15.5722C92.5106 16.0535 92.2888 16.7522 92.2844 17.6684V18.3048C92.2844 19.1783 92.5328 19.8734 93.0297 20.3904C93.5266 20.9037 94.1987 21.1604 95.0461 21.1604C95.5253 21.1604 95.9445 21.1176 96.3039 21.0321C96.6632 20.9465 96.9605 20.8021 97.1956 20.5989V18.8503H94.9529V18.016H98.4667V20.8717Z" fill="#170F36" />
  </g>
  <defs>
    <filter id="filter0_d_4002_142" x="0" y="0" width="248" height="72" filterUnits="userSpaceOnUse" color-interpolation-filters="sRGB">
      <feFlood flood-opacity="0" result="BackgroundImageFix" />
      <feColorMatrix in="SourceAlpha" type="matrix" values="0 0 0 0 0 0 0 0 0 0 0 0 0 0 0 0 0 0 127 0" result="hardAlpha" />
      <feOffset dy="2" />
      <feGaussianBlur stdDeviation="2" />
      <feComposite in2="hardAlpha" operator="out" />
      <feColorMatrix type="matrix" values="0 0 0 0 1 0 0 0 0 0.996078 0 0 0 0 0.964706 0 0 0 0.2 0" />
      <feBlend mode="normal" in2="BackgroundImageFix" result="effect1_dropShadow_4002_142" />
      <feBlend mode="normal" in="SourceGraphic" in2="effect1_dropShadow_4002_142" result="shape" />
    </filter>
    <linearGradient id="paint0_linear_4002_142" x1="69.6186" y1="33.5918" x2="56.8335" y2="33.5918" gradientUnits="userSpaceOnUse">
      <stop stop-color="#FFBC00" />
      <stop offset="1" stop-color="#FFDA03" />
    </linearGradient>
    <linearGradient id="paint1_linear_4002_142" x1="59.8321" y1="39.8982" x2="42.8103" y2="54.0275" gradientUnits="userSpaceOnUse">
      <stop stop-color="#E22652" />
      <stop offset="1" stop-color="#FF3A44" />
    </linearGradient>
    <linearGradient id="paint2_linear_4002_142" x1="39.8494" y1="17.0112" x2="51.1931" y2="27.056" gradientUnits="userSpaceOnUse">
      <stop stop-color="#0ED574" />
      <stop offset="1" stop-color="#07F076" />
    </linearGradient>
  </defs>
</symbol>
  </defs>
</svg>
